<mxfile host="Electron" modified="2024-02-19T12:32:48.876Z" agent="Mozilla/5.0 (Windows NT 10.0; Win64; x64) AppleWebKit/537.36 (KHTML, like Gecko) draw.io/22.1.2 Chrome/114.0.5735.289 Electron/25.9.4 Safari/537.36" etag="TCmhK6SVE7yhhyzloWYE" version="22.1.2" type="device">
  <diagram name="Seite-1" id="nIpsNATdK1xnseQw5tq7">
    <mxGraphModel dx="1102" dy="583" grid="1" gridSize="10" guides="1" tooltips="1" connect="1" arrows="1" fold="1" page="1" pageScale="1" pageWidth="827" pageHeight="1169" math="0" shadow="0">
      <root>
        <mxCell id="0" />
        <mxCell id="1" parent="0" />
        <mxCell id="QCPW4eA2JDyvcbZSrvEU-23" style="edgeStyle=orthogonalEdgeStyle;rounded=0;orthogonalLoop=1;jettySize=auto;html=1;" edge="1" parent="1" source="QCPW4eA2JDyvcbZSrvEU-1" target="QCPW4eA2JDyvcbZSrvEU-3">
          <mxGeometry relative="1" as="geometry" />
        </mxCell>
        <mxCell id="QCPW4eA2JDyvcbZSrvEU-1" value="Start" style="strokeWidth=1;html=1;shape=mxgraph.flowchart.terminator;whiteSpace=wrap;" vertex="1" parent="1">
          <mxGeometry x="140" y="40" width="80" height="40" as="geometry" />
        </mxCell>
        <mxCell id="QCPW4eA2JDyvcbZSrvEU-2" value="Ende" style="strokeWidth=1;html=1;shape=mxgraph.flowchart.terminator;whiteSpace=wrap;" vertex="1" parent="1">
          <mxGeometry x="140" y="640" width="80" height="40" as="geometry" />
        </mxCell>
        <mxCell id="QCPW4eA2JDyvcbZSrvEU-24" style="edgeStyle=orthogonalEdgeStyle;rounded=0;orthogonalLoop=1;jettySize=auto;html=1;" edge="1" parent="1" source="QCPW4eA2JDyvcbZSrvEU-3" target="QCPW4eA2JDyvcbZSrvEU-4">
          <mxGeometry relative="1" as="geometry" />
        </mxCell>
        <mxCell id="QCPW4eA2JDyvcbZSrvEU-3" value="char zeichen1, zeichen2" style="rounded=0;whiteSpace=wrap;html=1;" vertex="1" parent="1">
          <mxGeometry x="120" y="100" width="120" height="30" as="geometry" />
        </mxCell>
        <mxCell id="QCPW4eA2JDyvcbZSrvEU-25" style="edgeStyle=orthogonalEdgeStyle;rounded=0;orthogonalLoop=1;jettySize=auto;html=1;" edge="1" parent="1" source="QCPW4eA2JDyvcbZSrvEU-4" target="QCPW4eA2JDyvcbZSrvEU-5">
          <mxGeometry relative="1" as="geometry" />
        </mxCell>
        <mxCell id="QCPW4eA2JDyvcbZSrvEU-4" value="eingabe(zeichen1)" style="shape=parallelogram;perimeter=parallelogramPerimeter;whiteSpace=wrap;html=1;fixedSize=1;" vertex="1" parent="1">
          <mxGeometry x="120" y="150" width="120" height="30" as="geometry" />
        </mxCell>
        <mxCell id="QCPW4eA2JDyvcbZSrvEU-26" style="edgeStyle=orthogonalEdgeStyle;rounded=0;orthogonalLoop=1;jettySize=auto;html=1;" edge="1" parent="1" source="QCPW4eA2JDyvcbZSrvEU-5" target="QCPW4eA2JDyvcbZSrvEU-6">
          <mxGeometry relative="1" as="geometry" />
        </mxCell>
        <mxCell id="QCPW4eA2JDyvcbZSrvEU-5" value="eingabe(zeichen2)" style="shape=parallelogram;perimeter=parallelogramPerimeter;whiteSpace=wrap;html=1;fixedSize=1;" vertex="1" parent="1">
          <mxGeometry x="120" y="200" width="120" height="30" as="geometry" />
        </mxCell>
        <mxCell id="QCPW4eA2JDyvcbZSrvEU-8" style="edgeStyle=orthogonalEdgeStyle;rounded=0;orthogonalLoop=1;jettySize=auto;html=1;" edge="1" parent="1" source="QCPW4eA2JDyvcbZSrvEU-6" target="QCPW4eA2JDyvcbZSrvEU-7">
          <mxGeometry relative="1" as="geometry" />
        </mxCell>
        <mxCell id="QCPW4eA2JDyvcbZSrvEU-10" style="edgeStyle=orthogonalEdgeStyle;rounded=0;orthogonalLoop=1;jettySize=auto;html=1;" edge="1" parent="1" source="QCPW4eA2JDyvcbZSrvEU-6" target="QCPW4eA2JDyvcbZSrvEU-9">
          <mxGeometry relative="1" as="geometry">
            <mxPoint x="280" y="310" as="targetPoint" />
          </mxGeometry>
        </mxCell>
        <mxCell id="QCPW4eA2JDyvcbZSrvEU-6" value="zeichen1 == &#39;Q&#39; UND zeichen2 != &#39;Q&#39;" style="rhombus;whiteSpace=wrap;html=1;" vertex="1" parent="1">
          <mxGeometry x="102.5" y="250" width="155" height="80" as="geometry" />
        </mxCell>
        <mxCell id="QCPW4eA2JDyvcbZSrvEU-7" value="ausgabe(&quot;Fall 1&quot;)" style="shape=parallelogram;perimeter=parallelogramPerimeter;whiteSpace=wrap;html=1;fixedSize=1;" vertex="1" parent="1">
          <mxGeometry x="120" y="370" width="120" height="30" as="geometry" />
        </mxCell>
        <mxCell id="QCPW4eA2JDyvcbZSrvEU-15" style="edgeStyle=orthogonalEdgeStyle;rounded=0;orthogonalLoop=1;jettySize=auto;html=1;" edge="1" parent="1" source="QCPW4eA2JDyvcbZSrvEU-9" target="QCPW4eA2JDyvcbZSrvEU-14">
          <mxGeometry relative="1" as="geometry" />
        </mxCell>
        <mxCell id="QCPW4eA2JDyvcbZSrvEU-20" style="edgeStyle=orthogonalEdgeStyle;rounded=0;orthogonalLoop=1;jettySize=auto;html=1;" edge="1" parent="1" source="QCPW4eA2JDyvcbZSrvEU-9" target="QCPW4eA2JDyvcbZSrvEU-19">
          <mxGeometry relative="1" as="geometry" />
        </mxCell>
        <mxCell id="QCPW4eA2JDyvcbZSrvEU-9" value="zeichen1 != &#39;Q&#39; UND zeichen2 == &#39;Q&#39;" style="rhombus;whiteSpace=wrap;html=1;" vertex="1" parent="1">
          <mxGeometry x="310" y="250" width="155" height="80" as="geometry" />
        </mxCell>
        <mxCell id="QCPW4eA2JDyvcbZSrvEU-11" value="wahr" style="text;html=1;align=center;verticalAlign=middle;resizable=0;points=[];autosize=1;strokeColor=none;fillColor=none;" vertex="1" parent="1">
          <mxGeometry x="175" y="328" width="50" height="30" as="geometry" />
        </mxCell>
        <mxCell id="QCPW4eA2JDyvcbZSrvEU-12" value="falsch" style="text;html=1;align=center;verticalAlign=middle;resizable=0;points=[];autosize=1;strokeColor=none;fillColor=none;" vertex="1" parent="1">
          <mxGeometry x="257.5" y="258" width="50" height="30" as="geometry" />
        </mxCell>
        <mxCell id="QCPW4eA2JDyvcbZSrvEU-13" style="edgeStyle=orthogonalEdgeStyle;rounded=0;orthogonalLoop=1;jettySize=auto;html=1;entryX=0.5;entryY=0;entryDx=0;entryDy=0;entryPerimeter=0;" edge="1" parent="1" source="QCPW4eA2JDyvcbZSrvEU-7" target="QCPW4eA2JDyvcbZSrvEU-2">
          <mxGeometry relative="1" as="geometry" />
        </mxCell>
        <mxCell id="QCPW4eA2JDyvcbZSrvEU-21" style="edgeStyle=orthogonalEdgeStyle;rounded=0;orthogonalLoop=1;jettySize=auto;html=1;" edge="1" parent="1" source="QCPW4eA2JDyvcbZSrvEU-14" target="QCPW4eA2JDyvcbZSrvEU-2">
          <mxGeometry relative="1" as="geometry">
            <Array as="points">
              <mxPoint x="388" y="490" />
              <mxPoint x="180" y="490" />
            </Array>
          </mxGeometry>
        </mxCell>
        <mxCell id="QCPW4eA2JDyvcbZSrvEU-14" value="ausgabe(&quot;Fall 2&quot;)" style="shape=parallelogram;perimeter=parallelogramPerimeter;whiteSpace=wrap;html=1;fixedSize=1;" vertex="1" parent="1">
          <mxGeometry x="327.5" y="370" width="120" height="30" as="geometry" />
        </mxCell>
        <mxCell id="QCPW4eA2JDyvcbZSrvEU-17" value="wahr" style="text;html=1;align=center;verticalAlign=middle;resizable=0;points=[];autosize=1;strokeColor=none;fillColor=none;" vertex="1" parent="1">
          <mxGeometry x="397.5" y="330" width="50" height="30" as="geometry" />
        </mxCell>
        <mxCell id="QCPW4eA2JDyvcbZSrvEU-18" value="falsch" style="text;html=1;align=center;verticalAlign=middle;resizable=0;points=[];autosize=1;strokeColor=none;fillColor=none;" vertex="1" parent="1">
          <mxGeometry x="490" y="258" width="50" height="30" as="geometry" />
        </mxCell>
        <mxCell id="QCPW4eA2JDyvcbZSrvEU-22" style="edgeStyle=orthogonalEdgeStyle;rounded=0;orthogonalLoop=1;jettySize=auto;html=1;" edge="1" parent="1" source="QCPW4eA2JDyvcbZSrvEU-19" target="QCPW4eA2JDyvcbZSrvEU-2">
          <mxGeometry relative="1" as="geometry">
            <Array as="points">
              <mxPoint x="580" y="490" />
              <mxPoint x="180" y="490" />
            </Array>
          </mxGeometry>
        </mxCell>
        <mxCell id="QCPW4eA2JDyvcbZSrvEU-19" value="ausgabe(&quot;Fall 3&quot;)" style="shape=parallelogram;perimeter=parallelogramPerimeter;whiteSpace=wrap;html=1;fixedSize=1;" vertex="1" parent="1">
          <mxGeometry x="520" y="370" width="120" height="30" as="geometry" />
        </mxCell>
        <mxCell id="QCPW4eA2JDyvcbZSrvEU-27" value="a_04_01_02_sv01" style="text;html=1;align=center;verticalAlign=middle;resizable=0;points=[];autosize=1;strokeColor=none;fillColor=none;" vertex="1" parent="1">
          <mxGeometry x="20" y="10" width="120" height="30" as="geometry" />
        </mxCell>
      </root>
    </mxGraphModel>
  </diagram>
</mxfile>
